<?xml version="1.0" encoding="utf-8"?>
<!-- Generator: Adobe Illustrator 27.7.0, SVG Export Plug-In . SVG Version: 6.00 Build 0)  -->
<svg version="1.1" id="Camada_1" xmlns="http://www.w3.org/2000/svg" xmlns:xlink="http://www.w3.org/1999/xlink" x="0px" y="0px"
	 viewBox="0 0 371.4 96.1" style="enable-background:new 0 0 371.4 96.1;" xml:space="preserve">
<style type="text/css">
	.st0{fill:#F25626;}
	.st1{fill:#FFFFFF;}
</style>
<g>
	<g id="symbol_6_" transform="translate(7 19.328)">
		<path id="ball-right_6_" class="st0" d="M56.6,33.9c-0.2,0-0.3,0-0.5,0c-0.2,0-0.3,0-0.5-0.1c-0.2,0-0.3-0.1-0.5-0.1
			s-0.3-0.1-0.5-0.2c-0.2-0.1-0.3-0.1-0.4-0.2c-0.1-0.1-0.3-0.2-0.4-0.3c-0.1-0.1-0.3-0.2-0.4-0.3c-0.1-0.1-0.3-0.2-0.4-0.3
			c-0.1-0.1-0.2-0.2-0.3-0.4s-0.2-0.3-0.3-0.4s-0.2-0.3-0.3-0.4s-0.1-0.3-0.2-0.4s-0.1-0.3-0.2-0.5c0-0.2-0.1-0.3-0.1-0.5
			c0-0.2-0.1-0.3-0.1-0.5s0-0.3,0-0.5s0-0.3,0-0.5s0-0.3,0.1-0.5c0-0.2,0.1-0.3,0.1-0.5c0-0.2,0.1-0.3,0.2-0.5s0.1-0.3,0.2-0.4
			s0.2-0.3,0.3-0.4c0.1-0.1,0.2-0.3,0.3-0.4c0.1-0.1,0.2-0.3,0.3-0.4c0.1-0.1,0.2-0.2,0.4-0.3c0.1-0.1,0.3-0.2,0.4-0.3
			c0.1-0.1,0.3-0.2,0.4-0.3c0.1-0.1,0.3-0.1,0.4-0.2c0.2-0.1,0.3-0.1,0.5-0.2c0.3-0.1,0.6-0.2,1-0.2c0.3,0,0.7,0,1,0
			c0.2,0,0.3,0,0.5,0.1c0.2,0,0.3,0.1,0.5,0.1c0.2,0,0.3,0.1,0.5,0.2c0.2,0.1,0.3,0.1,0.4,0.2c0.1,0.1,0.3,0.2,0.4,0.3
			c0.1,0.1,0.3,0.2,0.4,0.3c0.1,0.1,0.3,0.2,0.4,0.3c0.1,0.1,0.2,0.2,0.3,0.4s0.2,0.3,0.3,0.4c0.1,0.1,0.2,0.3,0.3,0.4
			c0.2,0.3,0.3,0.6,0.4,0.9c0,0.2,0.1,0.3,0.1,0.5s0.1,0.3,0.1,0.5s0,0.3,0,0.5s0,0.3,0,0.5s0,0.3-0.1,0.5s-0.1,0.3-0.1,0.5
			c0,0.2-0.1,0.3-0.2,0.5c-0.1,0.3-0.3,0.6-0.5,0.9c-0.1,0.1-0.2,0.3-0.3,0.4s-0.2,0.3-0.3,0.4c-0.1,0.1-0.2,0.2-0.4,0.3
			c-0.1,0.1-0.3,0.2-0.4,0.3c-0.1,0.1-0.3,0.2-0.4,0.3c-0.1,0.1-0.3,0.1-0.4,0.2c-0.2,0.1-0.3,0.1-0.5,0.2s-0.3,0.1-0.5,0.1
			c-0.2,0-0.3,0.1-0.5,0.1C56.9,33.9,56.8,33.9,56.6,33.9z"/>
		<path id="ball-left_6_" class="st0" d="M-1.9,33.6c-0.2,0-0.3,0-0.5,0s-0.3,0-0.5-0.1c-0.3-0.1-0.6-0.2-0.9-0.3
			C-4,33.1-4.2,33-4.3,33s-0.3-0.2-0.4-0.3s-0.3-0.2-0.4-0.3s-0.3-0.2-0.4-0.3c-0.1-0.1-0.2-0.2-0.3-0.4c-0.1-0.1-0.2-0.3-0.3-0.4
			c-0.1-0.1-0.2-0.3-0.3-0.4s-0.1-0.3-0.2-0.4c-0.1-0.2-0.1-0.3-0.2-0.5c0-0.2-0.1-0.3-0.1-0.5S-7,29.2-7,29c0-0.3,0-0.7,0-1
			c0-0.2,0-0.3,0.1-0.5s0.1-0.3,0.1-0.5c0-0.2,0.1-0.3,0.2-0.5c0.1-0.2,0.1-0.3,0.2-0.4s0.2-0.3,0.3-0.4c0.1-0.1,0.2-0.3,0.3-0.4
			c0.1-0.1,0.2-0.3,0.3-0.4c0.1-0.1,0.2-0.2,0.4-0.3s0.3-0.2,0.4-0.3c0.1-0.1,0.3-0.2,0.4-0.3c0.1-0.1,0.3-0.1,0.4-0.2
			c0.3-0.1,0.6-0.2,0.9-0.3c0.2,0,0.3-0.1,0.5-0.1c0.3,0,0.7,0,1,0c0.2,0,0.3,0,0.5,0.1c0.2,0,0.3,0.1,0.5,0.1
			c0.2,0,0.3,0.1,0.5,0.2c0.2,0.1,0.3,0.1,0.4,0.2s0.3,0.2,0.4,0.3s0.3,0.2,0.4,0.3s0.3,0.2,0.4,0.3s0.2,0.2,0.3,0.4
			c0.1,0.1,0.2,0.3,0.3,0.4c0.1,0.1,0.2,0.3,0.3,0.4c0.1,0.1,0.1,0.3,0.2,0.4c0.1,0.2,0.1,0.3,0.2,0.5S3,27.4,3,27.5
			s0.1,0.3,0.1,0.5s0,0.3,0,0.5s0,0.3,0,0.5s0,0.3-0.1,0.5c0,0.2-0.1,0.3-0.1,0.5c0,0.2-0.1,0.3-0.2,0.5c-0.1,0.2-0.1,0.3-0.2,0.4
			c-0.1,0.1-0.2,0.3-0.3,0.4S2.1,31.6,2,31.7S1.7,32,1.6,32.1s-0.2,0.2-0.4,0.3S1,32.6,0.9,32.7S0.6,32.9,0.4,33S0.1,33.1,0,33.2
			c-0.2,0.1-0.3,0.1-0.5,0.2c-0.2,0-0.3,0.1-0.5,0.1c-0.2,0-0.3,0.1-0.5,0.1S-1.8,33.6-1.9,33.6z"/>
		<path id="path-lower_6_" class="st0" d="M56.3,9c-9.3,0.9-17,7.6-19.2,16.7l-0.7,3h0.1l-0.4,3c-2.7,20-19.7,34.9-39.8,34.9h-0.3
			h-0.4v10.1h0.3h0.3C21.4,76.7,42.7,58,46,33l0.6-4.3h0.1l0.1-0.6c1.2-4.9,5.4-8.6,10.4-9.1l1.8-0.2V8.8L56.3,9z"/>
		<path id="path-middle_6_" class="st0" d="M57.8-5.3C40.3-4.9,25.6,7.9,22.8,25.1l-0.6,3.5h-0.1l-0.3,2C19.8,43,9.2,52.2-3.3,52.5
			l-1.1,0v10.1l1.3,0C14.3,62.2,29,49.5,31.8,32.2l0.6-3.5h0.1l0.3-2C34.8,14.3,45.4,5.1,58,4.8l1.1,0V-5.3L57.8-5.3z"/>
		<path id="path-top_6_" class="st0" d="M58.8-19.3C33.5-19.5,11.9-0.8,8.6,24.3L8,28.6H7.9l-0.1,0.6c-1.2,4.9-5.4,8.6-10.4,9.1
			l-1.8,0.2v10.1l2.8-0.3c9.3-0.9,17-7.6,19.2-16.7l0.7-3h-0.1l0.4-3c2.7-20,19.7-34.9,39.8-34.9h0.3h0.4v-10.1L58.8-19.3z"/>
	</g>
	<path id="Path_512_2_" class="st1" d="M94.3,58.7c2.4,0,4.8,0.6,6.9,1.8c2,1.2,3.7,2.8,4.8,4.9c1.2,2.2,1.8,4.6,1.7,7.1
		c0,2.5-0.6,5-1.7,7.2c-1.1,2-2.8,3.7-4.8,4.9c-2.1,1.2-4.5,1.8-6.9,1.7c-2.3,0-4.5-0.6-6.5-1.7c-1.9-1.1-3.5-2.7-4.5-4.7v16.3h-2.6
		V58.9h2.5v6.4c1-2,2.6-3.7,4.6-4.9C89.7,59.3,92,58.7,94.3,58.7z M94.1,83.9c2,0,3.9-0.5,5.6-1.5c1.7-1,3-2.4,3.9-4.1
		c1-1.8,1.5-3.9,1.4-5.9c0-2.1-0.5-4.1-1.4-5.9c-0.9-1.7-2.3-3.1-3.9-4.1c-1.7-1-3.6-1.5-5.6-1.5c-2,0-3.9,0.5-5.6,1.5
		c-1.6,1-3,2.4-3.9,4.1c-1,1.8-1.5,3.9-1.4,5.9c0,2.1,0.5,4.1,1.4,5.9c0.9,1.7,2.3,3.1,3.9,4.1C90.2,83.4,92.2,84,94.1,83.9z
		 M113.1,47.5h2.6v38.6h-2.6V47.5z M133.3,58.7c3.4,0,5.9,0.9,7.7,2.6c1.8,1.7,2.7,4.2,2.7,7.6v17.2h-2.5v-4.8
		c-0.9,1.6-2.2,2.9-3.8,3.7c-1.9,0.9-3.9,1.4-6,1.3c-2.6,0.1-5.1-0.6-7.2-2.1c-1.7-1.3-2.7-3.4-2.6-5.6c-0.1-2.1,0.8-4.1,2.4-5.5
		c1.6-1.4,4.2-2.1,7.7-2.1h9.3v-2.2c0.2-2.1-0.6-4.2-2.1-5.8c-1.7-1.4-3.8-2.1-6-2c-1.8,0-3.5,0.3-5.2,0.9c-1.5,0.6-3,1.4-4.2,2.5
		l-1.3-1.9c1.4-1.3,3.1-2.2,4.9-2.8C129.2,59,131.2,58.7,133.3,58.7z M131.8,84.1c2,0.1,4-0.5,5.7-1.6c1.6-1.1,2.9-2.7,3.6-4.5v-5.1
		h-9.3c-2.7,0-4.6,0.5-5.8,1.5c-1.2,1-1.9,2.5-1.8,4c-0.1,1.6,0.7,3.2,2,4.2C127.9,83.7,129.8,84.3,131.8,84.1z M165.3,84.3
		c-0.7,0.7-1.6,1.1-2.5,1.4c-1,0.3-2,0.5-3.1,0.5c-2,0.1-4-0.6-5.5-1.9c-1.3-1.5-2-3.4-1.9-5.4V61.1h-5v-2.2h5V53h2.6v5.9h8.6v2.2
		H155v17.5c-0.1,1.5,0.4,2.9,1.3,4c1,1,2.4,1.5,3.8,1.4c1.5,0.1,3.1-0.5,4.2-1.5L165.3,84.3z M179.1,58.7c3.4,0,5.9,0.9,7.7,2.6
		c1.8,1.7,2.7,4.2,2.7,7.6v17.2H187v-4.8c-0.9,1.6-2.2,2.9-3.8,3.7c-1.8,0.9-3.9,1.4-6,1.3c-2.6,0.1-5.1-0.6-7.1-2.1
		c-1.7-1.3-2.7-3.4-2.6-5.6c-0.1-2.1,0.8-4.1,2.4-5.5c1.6-1.4,4.2-2.1,7.7-2.1h9.3v-2.2c0.2-2.1-0.6-4.2-2.1-5.8
		c-1.7-1.4-3.8-2.1-6-2c-1.8,0-3.5,0.3-5.2,0.9c-1.5,0.6-3,1.4-4.2,2.5l-1.3-1.9c1.4-1.3,3.1-2.2,4.9-2.8
		C175,59,177,58.7,179.1,58.7z M177.6,84.1c2,0.1,4-0.5,5.7-1.6c1.6-1.1,2.9-2.7,3.6-4.5v-5.1h-9.3c-2.7,0-4.6,0.5-5.8,1.5
		c-1.2,1-1.9,2.5-1.8,4c-0.1,1.6,0.7,3.2,2,4.2C173.7,83.7,175.7,84.2,177.6,84.1z M205.8,49.5c-3.4,0-5.1,1.8-5.1,5.5v4h8.7v2.2
		h-8.6v24.9h-2.6V61.1h-5v-2.2h5v-4.2c-0.1-2,0.6-4,2-5.5c1.5-1.4,3.5-2.2,5.6-2c1,0,2,0.1,3,0.4c0.9,0.3,1.7,0.7,2.4,1.3l-1,2
		C208.9,50,207.4,49.4,205.8,49.5z M222.2,86.3c-2.4,0-4.8-0.6-6.9-1.8c-2-1.2-3.7-2.9-4.9-4.9c-1.2-2.2-1.8-4.6-1.8-7.1
		c0-2.5,0.6-4.9,1.8-7.1c1.1-2.1,2.8-3.8,4.9-4.9c2.1-1.2,4.5-1.8,6.9-1.8c2.4,0,4.8,0.6,6.9,1.8c2,1.2,3.7,2.9,4.9,4.9
		c1.2,2.2,1.8,4.6,1.8,7.1c0,2.5-0.6,4.9-1.8,7.1c-1.1,2.1-2.8,3.8-4.9,4.9C227.1,85.7,224.7,86.3,222.2,86.3z M222.2,83.9
		c2,0,3.9-0.5,5.6-1.5c1.6-1,3-2.4,3.9-4.1c1-1.8,1.5-3.9,1.4-5.9c0-2.1-0.5-4.1-1.4-5.9c-0.9-1.7-2.3-3.1-3.9-4.1
		c-1.7-1-3.6-1.5-5.6-1.5c-2,0-3.9,0.5-5.6,1.5c-1.6,1-3,2.4-3.9,4.1c-1,1.8-1.5,3.9-1.4,5.9c0,2.1,0.5,4.1,1.4,5.9
		c0.9,1.7,2.3,3.1,3.9,4.1C218.3,83.4,220.3,84,222.2,83.9z M243.8,64.8c0.8-1.9,2.1-3.5,3.9-4.5c2-1.1,4.2-1.7,6.4-1.6v2.6
		l-0.6-0.1c-2.7-0.1-5.2,0.9-7.1,2.8c-1.7,1.9-2.5,4.5-2.5,7.9v14.1h-2.6V58.9h2.5L243.8,64.8z M292.5,58.7c2.9-0.2,5.8,0.9,7.9,3
		c1.9,2,2.9,4.8,2.9,8.5v15.9h-2.6V70.4c0-3.1-0.7-5.4-2.2-7c-1.6-1.7-3.9-2.5-6.2-2.4c-2.7-0.1-5.4,0.9-7.3,2.9
		c-1.9,2.1-2.8,4.9-2.7,7.7v14.5h-2.6V70.4c0-3.1-0.7-5.4-2.2-7c-1.6-1.7-3.9-2.5-6.2-2.4c-2.7-0.1-5.4,0.9-7.3,2.9
		c-1.9,2.1-2.8,4.9-2.7,7.7v14.5h-2.6V58.9h2.5v5.8c0.9-1.9,2.3-3.4,4-4.4c1.9-1.1,4.1-1.6,6.4-1.6c2.2-0.1,4.4,0.5,6.3,1.7
		c1.7,1.2,3,2.9,3.7,4.9c0.9-2,2.4-3.7,4.2-4.8C287.8,59.3,290.1,58.6,292.5,58.7z M320.6,58.7c3.4,0,5.9,0.9,7.7,2.6
		c1.8,1.7,2.7,4.2,2.7,7.6v17.2h-2.5v-4.8c-0.9,1.6-2.2,2.9-3.8,3.7c-1.9,0.9-3.9,1.4-6,1.3c-2.6,0.1-5.1-0.6-7.1-2.1
		c-1.7-1.3-2.7-3.4-2.6-5.6c-0.1-2.1,0.8-4.1,2.4-5.5c1.6-1.4,4.2-2.1,7.7-2.1h9.3v-2.2c0.2-2.1-0.6-4.2-2.1-5.8
		c-1.7-1.4-3.8-2.1-6-2c-1.8,0-3.5,0.3-5.2,0.9c-1.5,0.6-3,1.4-4.2,2.5l-1.3-1.9c1.4-1.3,3.1-2.2,4.9-2.8
		C316.5,59,318.5,58.7,320.6,58.7z M319.1,84.1c2,0.1,4-0.5,5.7-1.6c1.6-1.1,2.9-2.7,3.6-4.5v-5.1h-9.3c-2.7,0-4.6,0.5-5.8,1.5
		c-1.2,1-1.9,2.5-1.8,4c-0.1,1.6,0.7,3.2,2,4.2C315.2,83.7,317.1,84.2,319.1,84.1z M358.2,86.5c-2.3,0-4.6-0.3-6.8-0.9
		c-1.9-0.4-3.7-1.2-5.3-2.2l2.7-5.8c1.4,0.9,2.9,1.5,4.5,1.9c1.7,0.5,3.4,0.7,5.2,0.8c3.4,0,5.1-0.8,5.1-2.5c0-0.8-0.6-1.5-1.4-1.7
		c-1.4-0.4-2.9-0.7-4.3-0.9c-1.9-0.3-3.8-0.7-5.7-1.2c-1.5-0.4-2.8-1.3-3.9-2.4c-1.2-1.4-1.8-3.1-1.6-4.9c0-1.7,0.5-3.4,1.5-4.7
		c1.2-1.5,2.7-2.6,4.5-3.2c2.2-0.8,4.6-1.2,6.9-1.1c2,0,4,0.2,5.9,0.7c1.7,0.3,3.3,0.9,4.9,1.8l-2.7,5.8c-2.5-1.4-5.2-2.1-8.1-2.1
		c-1.3-0.1-2.7,0.2-3.9,0.7c-0.8,0.3-1.3,1-1.3,1.9c0,0.9,0.6,1.6,1.4,1.8c1.5,0.5,3,0.8,4.5,1c1.9,0.3,3.8,0.7,5.6,1.2
		c1.5,0.4,2.8,1.2,3.8,2.4c1.1,1.3,1.7,3,1.6,4.8c0,1.7-0.5,3.3-1.6,4.6c-1.2,1.5-2.8,2.5-4.6,3.1C363,86.1,360.6,86.5,358.2,86.5z"
		/>
</g>
</svg>
