<?xml version="1.0" encoding="UTF-8"?>
<svg id="Camada_1" data-name="Camada 1" xmlns="http://www.w3.org/2000/svg" viewBox="0 0 2309.55 577.91">
  <defs>
    <style>
      .cls-1 {
        fill: #755ba2;
      }

      .cls-1, .cls-2, .cls-3, .cls-4 {
        fill-rule: evenodd;
      }

      .cls-1, .cls-2, .cls-3, .cls-4, .cls-5, .cls-6 {
        stroke-width: 0px;
      }

      .cls-2 {
        fill: #89be44;
      }

      .cls-3 {
        fill: #41a6c4;
      }

      .cls-4 {
        fill: #e51947;
      }

      .cls-5 {
        fill: #333;
      }

      .cls-6 {
        fill: #f4b92d;
      }
    </style>
  </defs>
  <path class="cls-5" d="M686.59,348.26c.77,7.99,2.55,14.76,5.37,20.3,2.81,5.55,6.77,10,11.89,13.35,5.11,3.35,11.51,5.74,19.18,7.15,7.67,1.42,17,2.13,28,2.13,5.11,0,10.29-.2,15.53-.58,5.24-.39,10.03-1.41,14.38-3.09,4.34-1.67,8.06-4.19,11.12-7.54,3.07-3.35,4.85-7.99,5.37-13.92.51-5.16-.76-9.48-3.83-12.96-3.07-3.48-7.67-6.57-13.81-9.28-6.14-2.71-13.49-5.09-22.05-7.16-8.57-2.06-18.09-4.12-28.57-6.19-9.72-2.06-20.27-4.64-31.65-7.74-11.38-3.09-21.8-7.54-31.26-13.34-9.47-5.8-17.2-13.4-23.21-22.82-6.01-9.41-8.63-21.2-7.86-35.38.51-13.67,3.77-25.14,9.78-34.42,6-9.28,13.81-16.69,23.4-22.24,9.59-5.54,20.45-9.48,32.6-11.8,12.14-2.32,24.61-3.48,37.4-3.48,36.56,0,64.43,6.77,83.61,20.3,19.18,13.54,29.15,35.52,29.92,65.94l-53.31.78c-1.53-15.47-7.1-26.62-16.68-33.45-9.59-6.83-24.49-10.25-44.69-10.25-5.12,0-10.42.26-15.92.77-5.5.52-10.48,1.74-14.96,3.67-4.47,1.94-8.31,4.71-11.5,8.31-3.2,3.62-5.05,8.64-5.56,15.08-.51,5.16.51,9.61,3.07,13.34,2.55,3.74,6.33,6.96,11.31,9.67,4.99,2.7,10.93,5.09,17.84,7.16,6.9,2.07,14.57,3.87,23.01,5.41,11.76,2.32,24.1,5.03,37.01,8.12,12.91,3.09,24.67,7.54,35.29,13.34,10.61,5.8,19.24,13.41,25.89,22.82,6.65,9.42,9.46,21.85,8.44,37.32-.51,13.67-3.77,24.89-9.78,33.64-6.01,8.77-13.75,15.66-23.21,20.69-9.46,5.02-20.14,8.51-32.03,10.44-11.89,1.93-24.1,2.9-36.63,2.9-16.36,0-31.58-1.49-45.64-4.45-14.07-2.96-26.27-7.8-36.63-14.51-10.36-6.7-18.47-15.66-24.36-26.88-5.88-11.22-9.08-24.95-9.59-41.19h53.31Z"/>
  <path class="cls-5" d="M939.73,347.1c.25,6.19,1.21,12.05,2.87,17.59,1.66,5.55,4.22,10.44,7.67,14.7,3.45,4.26,7.92,7.68,13.42,10.25,5.5,2.58,12.21,3.87,20.14,3.87,8.44,0,15.15-.51,20.14-1.54,4.99-1.03,8.88-2.57,11.7-4.64,2.81-2.06,4.79-4.51,5.94-7.35,1.15-2.83,1.98-5.93,2.49-9.28h48.71c-1.28,20.88-9.4,36.87-24.36,47.95-14.95,11.09-37.01,16.63-66.16,16.63-16.87,0-31.26-2.84-43.15-8.51-11.89-5.67-21.48-12.96-28.77-21.85-7.29-8.9-12.59-18.88-15.91-29.97-3.33-11.08-4.99-22.04-4.99-32.87v-17.4c0-11.08,1.66-21.91,4.99-32.49,3.32-10.57,8.69-20.04,16.11-28.43,7.41-8.37,17-15.08,28.76-20.11,11.76-5.03,26.08-7.54,42.96-7.54,30.17,0,53.12,7.09,68.85,21.27,15.72,14.18,23.59,33.39,23.59,57.63v32.1h-135.01ZM1023.73,315.38l-.38-4.26c-.52-10.05-4.16-18.49-10.93-25.33-6.78-6.83-17.07-10.25-30.88-10.25s-24.23,3.87-30.5,11.6c-6.27,7.74-9.91,17.15-10.93,28.23h83.61Z"/>
  <path class="cls-5" d="M1118.85,431.41v-191.44h51.01v25.14c6.65-9.79,15.27-17.08,25.89-21.85,10.61-4.77,21.15-7.16,31.64-7.16,13.81,0,26.14,2.13,37.01,6.38,10.87,4.26,20.26,12.18,28.19,23.79,8.44-10.83,18.16-18.56,29.15-23.21,10.99-4.64,22.63-6.96,34.9-6.96,25.57,0,45.2,7.61,58.88,22.82,13.68,15.22,20.52,36.1,20.52,62.65v109.84h-52.16v-103.65c0-6.19-.57-11.93-1.72-17.21-1.15-5.28-3.14-9.99-5.94-14.12-2.82-4.12-6.52-7.35-11.12-9.67-4.6-2.32-10.36-3.48-17.26-3.48-15.34,0-26.47,4.45-33.37,13.34-6.9,8.9-10.35,21.6-10.35,38.1v96.69h-52.55v-103.65c0-12.38-2.94-22.88-8.82-31.52-5.89-8.64-15.73-12.96-29.54-12.96s-24.23,4.45-31.26,13.34c-7.04,8.9-10.55,20.57-10.55,35v99.78h-52.55Z"/>
  <path class="cls-5" d="M1528.48,347.1c.25,6.19,1.21,12.05,2.87,17.59,1.66,5.55,4.22,10.44,7.67,14.7,3.45,4.26,7.92,7.68,13.43,10.25,5.49,2.58,12.2,3.87,20.14,3.87,8.44,0,15.15-.51,20.14-1.54,4.98-1.03,8.88-2.57,11.7-4.64,2.81-2.06,4.8-4.51,5.95-7.35,1.15-2.83,1.97-5.93,2.49-9.28h48.72c-1.29,20.88-9.4,36.87-24.36,47.95-14.96,11.09-37.01,16.63-66.17,16.63-16.87,0-31.26-2.84-43.15-8.51-11.89-5.67-21.48-12.96-28.76-21.85-7.29-8.9-12.6-18.88-15.92-29.97-3.33-11.08-4.99-22.04-4.99-32.87v-17.4c0-11.08,1.66-21.91,4.99-32.49,3.32-10.57,8.69-20.04,16.11-28.43,7.41-8.37,17.01-15.08,28.77-20.11,11.76-5.03,26.08-7.54,42.96-7.54,30.17,0,53.12,7.09,68.85,21.27,15.73,14.18,23.59,33.39,23.59,57.63v32.1h-135.01ZM1612.48,315.38l-.38-4.26c-.52-10.05-4.16-18.49-10.93-25.33-6.78-6.83-17.07-10.25-30.87-10.25s-24.23,3.87-30.5,11.6c-6.27,7.74-9.91,17.15-10.93,28.23h83.61Z"/>
  <path class="cls-5" d="M1707.59,431.41v-191.44h51.78v25.14c4.34-6.19,9.33-11.15,14.96-14.89,5.62-3.73,11.12-6.7,16.49-8.9,5.37-2.19,10.29-3.61,14.76-4.25,4.47-.64,7.99-.97,10.55-.97,18.15,0,32.6,2.84,43.34,8.51,10.74,5.67,18.92,12.96,24.55,21.85,5.62,8.89,9.27,18.76,10.93,29.58,1.66,10.83,2.49,21.41,2.49,31.72v103.65h-52.55v-104.03c0-13.92-2.94-24.88-8.82-32.88-5.89-7.99-15.73-11.99-29.54-11.99-8.19,0-15.22,1.35-21.09,4.06-5.88,2.71-10.68,6.25-14.38,10.64-3.71,4.39-6.46,9.47-8.25,15.28-1.79,5.8-2.68,11.67-2.68,17.59v101.33h-52.55Z"/>
  <path class="cls-5" d="M1963.8,240.36v-53.76h52.16v53.76h50.25v41h-50.25v91.66c0,5.41,1.4,9.16,4.22,11.22,2.81,2.07,6.77,3.09,11.89,3.09,3.58,0,7.73-.39,12.47-1.16,4.73-.78,10.03-1.68,15.92-2.71v43.32c-7.16,2.32-14.64,4.13-22.44,5.41-7.8,1.29-15.28,1.93-22.44,1.93s-13.43-.77-18.79-2.32c-10.23-2.06-18.35-7.09-24.36-15.09-6.01-7.99-9.01-19.85-9.01-35.58v-99.78h-35.67v-41h36.05Z"/>
  <path class="cls-5" d="M2141.39,347.1c.25,6.19,1.21,12.05,2.87,17.59,1.66,5.55,4.22,10.44,7.67,14.7,3.45,4.26,7.92,7.68,13.42,10.25,5.5,2.58,12.21,3.87,20.14,3.87,8.44,0,15.15-.51,20.14-1.54,4.99-1.03,8.88-2.57,11.7-4.64,2.81-2.06,4.79-4.51,5.94-7.35,1.15-2.83,1.98-5.93,2.49-9.28h48.71c-1.28,20.88-9.4,36.87-24.36,47.95-14.95,11.09-37.01,16.63-66.16,16.63-16.87,0-31.26-2.84-43.15-8.51-11.89-5.67-21.48-12.96-28.77-21.85-7.29-8.9-12.59-18.88-15.91-29.97-3.33-11.08-4.99-22.04-4.99-32.87v-17.4c0-11.08,1.66-21.91,4.99-32.49,3.32-10.57,8.69-20.04,16.11-28.43,7.41-8.37,17-15.08,28.76-20.11,11.76-5.03,26.08-7.54,42.96-7.54,30.17,0,53.12,7.09,68.85,21.27,15.72,14.18,23.59,33.39,23.59,57.63v32.1h-135.01ZM2225.38,315.38l-.38-4.26c-.52-10.05-4.16-18.49-10.93-25.33-6.78-6.83-17.07-10.25-30.88-10.25s-24.23,3.87-30.5,11.6c-6.27,7.74-9.91,17.15-10.93,28.23h83.61Z"/>
  <g>
    <path class="cls-5" d="M645.17,530.19c.3,2.16.83,3.99,1.58,5.49.75,1.5,1.8,2.71,3.16,3.61,1.35.9,3.03,1.55,5.04,1.94,2.02.39,4.43.59,7.25.59,1.44,0,2.85-.06,4.24-.18,1.38-.12,2.63-.4,3.74-.85,1.11-.45,2.07-1.1,2.88-1.94.81-.84,1.33-1.99,1.58-3.43.3-1.44.15-2.69-.45-3.74-.6-1.05-1.59-1.97-2.98-2.75-1.38-.78-3.14-1.44-5.27-1.98-2.13-.55-4.58-1.09-7.34-1.62-1.33-.24-2.82-.54-4.51-.9-1.68-.36-3.41-.84-5.18-1.44s-3.49-1.35-5.14-2.26c-1.66-.9-3.08-2.01-4.28-3.33-1.2-1.32-2.13-2.89-2.79-4.73-.66-1.83-.84-3.95-.54-6.36.3-2.82,1.1-5.2,2.39-7.12,1.29-1.93,2.96-3.49,5-4.69,2.05-1.2,4.4-2.06,7.08-2.57,2.67-.51,5.51-.77,8.52-.77,7.87,0,13.98,1.52,18.34,4.55,4.36,3.04,6.69,7.86,6.99,14.46l-9.47.09c-.54-3.9-2.07-6.7-4.6-8.38-2.52-1.68-6.48-2.52-11.89-2.52-1.38,0-2.77.07-4.15.22-1.38.15-2.64.47-3.78.94-1.14.48-2.11,1.19-2.93,2.12-.81.94-1.37,2.21-1.67,3.83-.24,1.5-.07,2.8.5,3.88.56,1.08,1.49,2.03,2.75,2.84,1.26.81,2.82,1.49,4.68,2.03,1.87.54,3.91,1.05,6.13,1.53,1.86.36,3.78.73,5.76,1.13,1.99.39,3.92.9,5.81,1.53,1.89.63,3.68,1.4,5.36,2.3,1.68.9,3.13,2,4.32,3.29,1.2,1.29,2.09,2.85,2.66,4.69.57,1.83.74,3.98.5,6.44-.3,2.76-1.11,5.04-2.44,6.85-1.32,1.81-2.99,3.23-5,4.28-2.01,1.05-4.34,1.79-6.98,2.21-2.64.42-5.41.63-8.29.63-3.9,0-7.43-.36-10.59-1.08-3.16-.72-5.86-1.88-8.11-3.47-2.25-1.59-4.01-3.65-5.27-6.17-1.26-2.52-1.99-5.55-2.16-9.1l9.55-.09Z"/>
    <path class="cls-5" d="M694.56,529.01v-4.14c0-2.77.4-5.37,1.22-7.8.81-2.44,2.07-4.57,3.78-6.4,1.71-1.83,3.86-3.28,6.44-4.33,2.58-1.05,5.65-1.58,9.19-1.58s6.61.53,9.19,1.58c2.58,1.05,4.73,2.49,6.44,4.33,1.72,1.83,2.98,3.96,3.79,6.4.81,2.43,1.22,5.03,1.22,7.8v4.14c0,2.71-.4,5.33-1.22,7.89-.81,2.55-2.06,4.81-3.74,6.76-1.68,1.95-3.83,3.52-6.44,4.69-2.61,1.17-5.69,1.76-9.24,1.76s-6.61-.59-9.19-1.76c-2.59-1.17-4.73-2.73-6.44-4.69-1.71-1.95-2.97-4.21-3.78-6.76-.81-2.55-1.22-5.18-1.22-7.89M715.28,541.81c2.05,0,3.77-.34,5.18-1.04,1.41-.69,2.57-1.62,3.47-2.79s1.56-2.54,1.98-4.1c.42-1.56.63-3.18.63-4.87v-3.88c0-1.68-.21-3.26-.63-4.73-.42-1.47-1.08-2.75-1.98-3.83-.9-1.08-2.06-1.94-3.47-2.57-1.41-.63-3.14-.94-5.18-.94s-3.77.31-5.18.94c-1.41.63-2.57,1.49-3.47,2.57-.9,1.08-1.55,2.36-1.94,3.83-.39,1.47-.59,3.05-.59,4.73v3.88c0,1.69.19,3.29.59,4.82.39,1.53,1.04,2.88,1.94,4.05.9,1.17,2.06,2.12,3.47,2.84,1.41.72,3.14,1.08,5.18,1.08"/>
    <rect class="cls-5" x="747.81" y="484.77" width="9.29" height="64.53"/>
    <path class="cls-5" d="M803.06,549.2v-6.13c-1.75,2.34-3.92,4.1-6.53,5.27-2.62,1.17-5.28,1.76-7.98,1.76-5.95,0-10.5-1.67-13.65-5-3.16-3.33-4.73-8.22-4.73-14.65v-24.78h9.28v23.7c0,3.91.84,6.98,2.53,9.24,1.68,2.25,4.41,3.38,8.2,3.38,4.2,0,7.33-1.27,9.37-3.83,2.05-2.55,3.07-5.9,3.07-10.05v-22.44h9.37v43.53h-8.92Z"/>
    <path class="cls-5" d="M843.16,541.9c1.86,0,3.38-.13,4.55-.41,1.17-.27,2.1-.64,2.79-1.12.69-.48,1.22-1.05,1.58-1.71s.66-1.41.9-2.26h9.55c-.36,1.98-.94,3.79-1.71,5.41-.78,1.62-1.85,3.02-3.2,4.19-1.35,1.17-3.04,2.12-5.09,2.84-2.05.72-4.48,1.14-7.3,1.27l-.72,2.97c1.98.24,3.68.9,5.09,1.98,1.41,1.08,2.12,2.73,2.12,4.96,0,1.44-.31,2.64-.94,3.6-.63.96-1.44,1.74-2.44,2.34-.99.6-2.1,1.04-3.33,1.31-1.23.27-2.45.4-3.65.4-1.38,0-2.72-.15-4.01-.45-1.29-.3-2.54-.81-3.74-1.53l1.99-4.23c1.74.9,3.6,1.35,5.59,1.35,1.02,0,1.99-.2,2.93-.58.93-.39,1.39-1.22,1.39-2.48,0-.84-.26-1.47-.77-1.89-.51-.42-1.14-.72-1.89-.9-.75-.18-1.54-.27-2.35-.27h-2.12l1.81-6.67c-3.07-.36-5.71-1.17-7.93-2.44-2.22-1.26-4.07-2.84-5.54-4.73-1.47-1.89-2.55-4.02-3.24-6.4-.7-2.37-1.04-4.85-1.04-7.43v-4.15c0-2.82.41-5.45,1.22-7.89.81-2.43,2.07-4.55,3.78-6.35,1.71-1.8,3.87-3.21,6.49-4.23,2.61-1.02,5.72-1.54,9.33-1.54s6.4.35,8.74,1.04c2.35.69,4.27,1.67,5.77,2.93,1.5,1.26,2.65,2.78,3.43,4.55.78,1.77,1.35,3.74,1.72,5.9h-9.47c-.18-.9-.46-1.72-.86-2.48-.39-.75-.98-1.41-1.75-1.98-.78-.57-1.79-1.01-3.02-1.31-1.23-.3-2.75-.45-4.55-.45-2.04,0-3.79.32-5.23.94-1.44.63-2.61,1.49-3.51,2.57-.9,1.08-1.55,2.36-1.94,3.83-.39,1.47-.58,3.08-.58,4.82v3.79c0,1.68.19,3.3.58,4.87.39,1.56,1.04,2.93,1.94,4.1.9,1.17,2.05,2.12,3.47,2.84,1.41.72,3.14,1.08,5.18,1.08"/>
    <path class="cls-5" d="M872.27,519.19c0-4.32,1.62-7.8,4.86-10.45,3.25-2.64,7.99-3.97,14.24-3.97s11.15,1.4,14.33,4.19c3.18,2.79,4.78,6.71,4.78,11.76v28.48h-8.83l-.09-5.95c-1.08,2.1-2.99,3.77-5.72,5-2.74,1.23-5.73,1.88-8.97,1.94-1.93,0-3.8-.21-5.63-.63-1.83-.42-3.47-1.14-4.92-2.16-1.44-1.02-2.61-2.36-3.51-4.01-.9-1.65-1.41-3.68-1.53-6.08-.06-2.05.22-3.95.86-5.72.63-1.77,1.62-3.32,2.97-4.64,1.35-1.33,3.08-2.38,5.18-3.16,2.1-.78,4.54-1.17,7.3-1.17l13.97-.09v-1.62c.06-2.94-.86-5.08-2.75-6.4-1.89-1.32-4.43-1.98-7.61-1.98-3.55-.06-6.06.55-7.53,1.81-1.47,1.26-2.23,2.88-2.3,4.86h-9.1ZM878.22,497.65c.24-.96.54-1.88.9-2.75.36-.87.86-1.62,1.49-2.25.63-.63,1.39-1.12,2.3-1.49.9-.36,1.98-.54,3.24-.54s2.3.17,3.29.5c.99.33,1.89.69,2.71,1.08.81.39,1.53.77,2.16,1.12.63.36,1.19.57,1.66.63.49.06,1.09-.06,1.81-.36.72-.3,1.2-1.2,1.44-2.71l4.96.9c-.3,2.52-.98,4.41-2.03,5.68-1.05,1.26-2.75,1.89-5.09,1.89-1.33,0-2.46-.17-3.43-.5-.96-.33-1.83-.72-2.61-1.17-.78-.45-1.49-.87-2.12-1.27-.63-.39-1.28-.61-1.94-.67-1.2-.18-2.07.14-2.61.95-.54.81-.9,1.66-1.09,2.56l-5.04-1.62ZM901.56,529.92h-13.16c-2.1,0-3.83.68-5.18,2.03-1.35,1.35-2,2.93-1.94,4.73.11,2.05.87,3.53,2.25,4.46,1.38.93,2.94,1.39,4.68,1.39s3.41-.25,5-.77c1.6-.51,3.01-1.24,4.24-2.21,1.23-.96,2.22-2.16,2.98-3.6.75-1.44,1.12-3.06,1.12-4.87v-1.17Z"/>
    <path class="cls-5" d="M921.21,529.01v-4.14c0-2.77.4-5.37,1.22-7.8.81-2.44,2.07-4.57,3.78-6.4,1.71-1.83,3.86-3.28,6.44-4.33,2.58-1.05,5.65-1.58,9.19-1.58s6.61.53,9.19,1.58c2.58,1.05,4.73,2.49,6.44,4.33,1.72,1.83,2.98,3.96,3.79,6.4.81,2.43,1.22,5.03,1.22,7.8v4.14c0,2.71-.4,5.33-1.22,7.89-.81,2.55-2.06,4.81-3.74,6.76-1.68,1.95-3.83,3.52-6.44,4.69-2.61,1.17-5.69,1.76-9.24,1.76s-6.61-.59-9.19-1.76c-2.59-1.17-4.73-2.73-6.44-4.69-1.71-1.95-2.97-4.21-3.78-6.76-.81-2.55-1.22-5.18-1.22-7.89M941.93,541.81c2.04,0,3.77-.34,5.18-1.04,1.41-.69,2.57-1.62,3.47-2.79.9-1.17,1.56-2.54,1.98-4.1.42-1.56.63-3.18.63-4.87v-3.88c0-1.68-.21-3.26-.63-4.73-.42-1.47-1.08-2.75-1.98-3.83-.9-1.08-2.06-1.94-3.47-2.57-1.41-.63-3.14-.94-5.18-.94s-3.77.31-5.18.94c-1.41.63-2.57,1.49-3.47,2.57-.9,1.08-1.55,2.36-1.94,3.83-.39,1.47-.59,3.05-.59,4.73v3.88c0,1.69.19,3.29.59,4.82.39,1.53,1.04,2.88,1.94,4.05.9,1.17,2.06,2.12,3.47,2.84,1.41.72,3.14,1.08,5.18,1.08"/>
    <path class="cls-5" d="M1003.75,530.19c.3,2.16.83,3.99,1.58,5.49.75,1.5,1.8,2.71,3.16,3.61,1.35.9,3.03,1.55,5.04,1.94,2.02.39,4.43.59,7.25.59,1.44,0,2.85-.06,4.24-.18,1.38-.12,2.63-.4,3.74-.85,1.11-.45,2.07-1.1,2.88-1.94.81-.84,1.33-1.99,1.58-3.43.3-1.44.15-2.69-.45-3.74-.6-1.05-1.59-1.97-2.98-2.75-1.38-.78-3.14-1.44-5.27-1.98-2.13-.55-4.58-1.09-7.34-1.62-1.33-.24-2.82-.54-4.51-.9-1.68-.36-3.41-.84-5.18-1.44-1.77-.6-3.49-1.35-5.14-2.26-1.66-.9-3.08-2.01-4.28-3.33-1.2-1.32-2.13-2.89-2.79-4.73-.67-1.83-.84-3.95-.54-6.36.3-2.82,1.1-5.2,2.39-7.12,1.29-1.93,2.96-3.49,5-4.69,2.04-1.2,4.4-2.06,7.08-2.57,2.67-.51,5.51-.77,8.52-.77,7.87,0,13.98,1.52,18.34,4.55,4.36,3.04,6.69,7.86,6.99,14.46l-9.47.09c-.54-3.9-2.08-6.7-4.6-8.38-2.52-1.68-6.48-2.52-11.9-2.52-1.38,0-2.76.07-4.15.22-1.38.15-2.65.47-3.78.94-1.14.48-2.11,1.19-2.93,2.12-.81.94-1.37,2.21-1.67,3.83-.24,1.5-.07,2.8.5,3.88.56,1.08,1.49,2.03,2.75,2.84,1.26.81,2.82,1.49,4.68,2.03,1.87.54,3.91,1.05,6.13,1.53,1.86.36,3.78.73,5.76,1.13,1.99.39,3.92.9,5.81,1.53,1.89.63,3.68,1.4,5.36,2.3,1.68.9,3.13,2,4.32,3.29,1.2,1.29,2.09,2.85,2.66,4.69.57,1.83.74,3.98.5,6.44-.3,2.76-1.11,5.04-2.44,6.85-1.32,1.81-2.99,3.23-5,4.28-2.01,1.05-4.34,1.79-6.99,2.21-2.64.42-5.4.63-8.29.63-3.9,0-7.43-.36-10.59-1.08-3.16-.72-5.86-1.88-8.11-3.47-2.25-1.59-4.01-3.65-5.27-6.17-1.26-2.52-1.99-5.55-2.16-9.1l9.55-.09Z"/>
    <path class="cls-5" d="M1053.14,529.01v-4.14c0-2.77.4-5.37,1.22-7.8.81-2.44,2.07-4.57,3.78-6.4,1.71-1.83,3.86-3.28,6.44-4.33,2.58-1.05,5.65-1.58,9.19-1.58s6.61.53,9.19,1.58c2.58,1.05,4.73,2.49,6.44,4.33,1.72,1.83,2.98,3.96,3.79,6.4.81,2.43,1.22,5.03,1.22,7.8v4.14c0,2.71-.4,5.33-1.22,7.89-.81,2.55-2.06,4.81-3.74,6.76-1.68,1.95-3.83,3.52-6.44,4.69-2.61,1.17-5.69,1.76-9.24,1.76s-6.61-.59-9.19-1.76c-2.59-1.17-4.73-2.73-6.44-4.69-1.71-1.95-2.97-4.21-3.78-6.76-.81-2.55-1.22-5.18-1.22-7.89M1073.86,541.81c2.04,0,3.77-.34,5.18-1.04,1.41-.69,2.57-1.62,3.47-2.79.9-1.17,1.56-2.54,1.98-4.1.42-1.56.63-3.18.63-4.87v-3.88c0-1.68-.21-3.26-.63-4.73-.42-1.47-1.08-2.75-1.98-3.83-.9-1.08-2.06-1.94-3.47-2.57-1.41-.63-3.14-.94-5.18-.94s-3.77.31-5.18.94c-1.41.63-2.57,1.49-3.47,2.57-.9,1.08-1.55,2.36-1.94,3.83-.39,1.47-.59,3.05-.59,4.73v3.88c0,1.69.19,3.29.59,4.82.39,1.53,1.04,2.88,1.94,4.05.9,1.17,2.06,2.12,3.47,2.84,1.41.72,3.14,1.08,5.18,1.08"/>
    <path class="cls-5" d="M1125.68,541.81c1.86,0,3.38-.13,4.55-.41,1.16-.27,2.11-.64,2.83-1.12.72-.48,1.26-1.05,1.62-1.71.36-.66.63-1.41.81-2.26h9.55c-.36,2.1-.98,4.01-1.85,5.72-.87,1.72-2.07,3.17-3.6,4.37-1.53,1.2-3.43,2.12-5.68,2.75-2.25.63-5,.94-8.24.94-3.6,0-6.71-.59-9.33-1.76-2.61-1.17-4.76-2.73-6.44-4.69-1.68-1.95-2.93-4.19-3.74-6.71-.81-2.53-1.22-5.17-1.22-7.93v-4.23c0-2.76.41-5.37,1.22-7.8.81-2.43,2.07-4.55,3.78-6.35,1.72-1.8,3.88-3.21,6.49-4.24,2.61-1.02,5.72-1.53,9.32-1.53s6.42.35,8.79,1.04c2.38.69,4.31,1.67,5.81,2.93,1.5,1.26,2.65,2.78,3.43,4.55.78,1.77,1.35,3.74,1.71,5.9h-9.55c-.18-.9-.46-1.72-.86-2.48-.39-.75-.98-1.41-1.75-1.99-.78-.57-1.79-1-3.02-1.3-1.23-.3-2.75-.45-4.55-.45-2.04,0-3.78.31-5.23.94-1.44.63-2.61,1.49-3.51,2.57-.9,1.08-1.55,2.36-1.94,3.83-.39,1.47-.59,3.05-.59,4.73v3.79c0,1.68.19,3.3.59,4.87.39,1.56,1.04,2.93,1.94,4.1.9,1.17,2.06,2.12,3.47,2.84,1.41.72,3.14,1.08,5.18,1.08"/>
    <path class="cls-5" d="M1155.69,491.07c0-1.5.54-2.83,1.62-4.01,1.08-1.17,2.55-1.76,4.41-1.76s3.27.55,4.37,1.62c1.11,1.08,1.66,2.4,1.66,3.97s-.53,2.93-1.57,4.1c-1.05,1.17-2.54,1.76-4.47,1.76s-3.33-.57-4.41-1.71c-1.08-1.14-1.62-2.46-1.62-3.97M1157.04,505.67h9.37v43.53h-9.37v-43.53Z"/>
    <path class="cls-5" d="M1178.67,529.01v-4.14c0-2.77.4-5.37,1.22-7.8.81-2.44,2.07-4.57,3.78-6.4,1.71-1.83,3.86-3.28,6.44-4.33,2.58-1.05,5.65-1.58,9.19-1.58s6.61.53,9.19,1.58c2.58,1.05,4.73,2.49,6.44,4.33,1.72,1.83,2.98,3.96,3.79,6.4.81,2.43,1.22,5.03,1.22,7.8v4.14c0,2.71-.4,5.33-1.22,7.89-.81,2.55-2.06,4.81-3.74,6.76-1.68,1.95-3.83,3.52-6.44,4.69-2.61,1.17-5.69,1.76-9.24,1.76s-6.61-.59-9.19-1.76c-2.59-1.17-4.73-2.73-6.44-4.69-1.71-1.95-2.97-4.21-3.78-6.76-.81-2.55-1.22-5.18-1.22-7.89M1199.39,541.81c2.04,0,3.77-.34,5.18-1.04,1.41-.69,2.57-1.62,3.47-2.79.9-1.17,1.56-2.54,1.98-4.1.42-1.56.63-3.18.63-4.87v-3.88c0-1.68-.21-3.26-.63-4.73-.42-1.47-1.08-2.75-1.98-3.83-.9-1.08-2.06-1.94-3.47-2.57-1.41-.63-3.14-.94-5.18-.94s-3.77.31-5.18.94c-1.41.63-2.57,1.49-3.47,2.57-.9,1.08-1.55,2.36-1.94,3.83-.39,1.47-.59,3.05-.59,4.73v3.88c0,1.69.19,3.29.59,4.82.39,1.53,1.04,2.88,1.94,4.05.9,1.17,2.06,2.12,3.47,2.84,1.41.72,3.14,1.08,5.18,1.08"/>
    <path class="cls-5" d="M1239.77,529.47c0,1.62.21,3.2.63,4.73.42,1.54,1.08,2.87,1.99,4.01.9,1.14,2.07,2.06,3.51,2.75,1.44.69,3.19,1.04,5.23,1.04s3.8-.11,5.09-.31c1.29-.21,2.33-.54,3.11-1,.78-.45,1.37-1.02,1.76-1.71.39-.69.7-1.52.95-2.48h9.01c-.66,4.33-2.52,7.68-5.59,10.05-3.06,2.38-7.9,3.56-14.5,3.56-3.49,0-6.53-.59-9.1-1.76-2.59-1.17-4.73-2.73-6.45-4.69-1.71-1.95-2.97-4.21-3.78-6.76-.81-2.55-1.22-5.18-1.22-7.89v-4.23c0-2.76.4-5.37,1.22-7.8.81-2.44,2.07-4.55,3.78-6.36,1.72-1.8,3.86-3.23,6.45-4.28,2.58-1.05,5.62-1.58,9.1-1.58,6.42,0,11.44,1.53,15.05,4.6,3.6,3.06,5.41,7.6,5.41,13.61v6.49h-31.64ZM1262.12,522.98v-1.08c-.12-2.71-1.11-4.91-2.97-6.62-1.86-1.71-4.6-2.57-8.2-2.57s-6.43,1-8.11,2.98c-1.68,1.99-2.67,4.42-2.98,7.3h22.26Z"/>
    <path class="cls-5" d="M1283.48,549.2v-43.53h9.01v6.22c1.62-2.4,3.72-4.19,6.31-5.36,2.58-1.17,5.26-1.76,8.03-1.76,3.06,0,5.93.65,8.6,1.94,2.68,1.29,4.82,3.32,6.45,6.09,1.86-2.71,4.22-4.71,7.07-6.04,2.85-1.32,5.84-1.98,8.97-1.98,2.94,0,5.54.47,7.79,1.39,2.26.94,4.13,2.24,5.63,3.92,1.5,1.68,2.63,3.73,3.38,6.13.75,2.4,1.13,5.04,1.13,7.93v25.05h-9.28v-23.97c0-1.68-.18-3.26-.54-4.73-.36-1.47-.94-2.76-1.76-3.87-.81-1.11-1.88-1.98-3.2-2.61-1.33-.63-2.91-.94-4.77-.94-4.09,0-7.1,1.31-9.06,3.92-1.95,2.61-2.93,5.93-2.93,9.96v22.26h-9.28v-23.97c0-1.74-.2-3.35-.59-4.82-.39-1.47-1.01-2.75-1.85-3.83-.84-1.08-1.91-1.94-3.2-2.57-1.29-.63-2.87-.94-4.73-.94-1.98,0-3.73.34-5.23,1.04-1.5.69-2.75,1.64-3.74,2.84-.99,1.2-1.72,2.64-2.21,4.32-.48,1.68-.72,3.49-.72,5.41v22.53h-9.28Z"/>
    <path class="cls-5" d="M1367.19,529.01v-4.14c0-2.77.41-5.37,1.22-7.8.81-2.44,2.07-4.57,3.78-6.4,1.71-1.83,3.86-3.28,6.44-4.33,2.58-1.05,5.65-1.58,9.19-1.58s6.61.53,9.19,1.58c2.58,1.05,4.73,2.49,6.44,4.33,1.72,1.83,2.98,3.96,3.79,6.4.81,2.43,1.22,5.03,1.22,7.8v4.14c0,2.71-.4,5.33-1.22,7.89-.81,2.55-2.06,4.81-3.74,6.76-1.68,1.95-3.83,3.52-6.44,4.69-2.61,1.17-5.69,1.76-9.24,1.76s-6.61-.59-9.19-1.76c-2.59-1.17-4.73-2.73-6.44-4.69-1.71-1.95-2.97-4.21-3.78-6.76-.81-2.55-1.22-5.18-1.22-7.89M1387.92,541.81c2.04,0,3.77-.34,5.18-1.04,1.41-.69,2.57-1.62,3.47-2.79.9-1.17,1.56-2.54,1.98-4.1.42-1.56.63-3.18.63-4.87v-3.88c0-1.68-.21-3.26-.63-4.73-.42-1.47-1.08-2.75-1.98-3.83-.9-1.08-2.06-1.94-3.47-2.57-1.41-.63-3.14-.94-5.18-.94s-3.77.31-5.18.94c-1.41.63-2.57,1.49-3.47,2.57-.9,1.08-1.55,2.36-1.94,3.83-.39,1.47-.59,3.05-.59,4.73v3.88c0,1.69.19,3.29.59,4.82.39,1.53,1.04,2.88,1.94,4.05.9,1.17,2.06,2.12,3.47,2.84,1.41.72,3.14,1.08,5.18,1.08"/>
    <path class="cls-5" d="M1439.74,541.81c1.86,0,3.38-.13,4.55-.41,1.16-.27,2.11-.64,2.83-1.12.72-.48,1.26-1.05,1.62-1.71s.63-1.41.81-2.26h9.55c-.36,2.1-.98,4.01-1.85,5.72-.87,1.72-2.07,3.17-3.6,4.37-1.53,1.2-3.43,2.12-5.68,2.75-2.25.63-5,.94-8.25.94-3.6,0-6.71-.59-9.33-1.76s-4.76-2.73-6.44-4.69c-1.68-1.95-2.93-4.19-3.74-6.71-.81-2.53-1.22-5.17-1.22-7.93v-4.23c0-2.76.41-5.37,1.22-7.8.81-2.43,2.07-4.55,3.78-6.35,1.72-1.8,3.88-3.21,6.49-4.24,2.61-1.02,5.72-1.53,9.32-1.53s6.42.35,8.79,1.04c2.38.69,4.31,1.67,5.81,2.93,1.5,1.26,2.65,2.78,3.43,4.55.78,1.77,1.35,3.74,1.71,5.9h-9.55c-.18-.9-.46-1.72-.86-2.48-.39-.75-.98-1.41-1.75-1.99-.78-.57-1.79-1-3.02-1.3-1.23-.3-2.75-.45-4.55-.45-2.04,0-3.78.31-5.22.94-1.44.63-2.61,1.49-3.52,2.57-.9,1.08-1.55,2.36-1.94,3.83-.39,1.47-.59,3.05-.59,4.73v3.79c0,1.68.19,3.3.59,4.87.39,1.56,1.04,2.93,1.94,4.1.9,1.17,2.06,2.12,3.47,2.84,1.41.72,3.14,1.08,5.18,1.08"/>
    <path class="cls-5" d="M1469.75,491.07c0-1.5.54-2.83,1.62-4.01,1.08-1.17,2.55-1.76,4.42-1.76s3.26.55,4.37,1.62c1.11,1.08,1.67,2.4,1.67,3.97s-.53,2.93-1.57,4.1c-1.06,1.17-2.54,1.76-4.47,1.76s-3.33-.57-4.42-1.71c-1.08-1.14-1.62-2.46-1.62-3.97M1471.1,505.67h9.37v43.53h-9.37v-43.53Z"/>
    <path class="cls-5" d="M1492.73,529.01v-4.14c0-2.77.4-5.37,1.22-7.8.81-2.44,2.07-4.57,3.78-6.4,1.71-1.83,3.86-3.28,6.44-4.33,2.58-1.05,5.65-1.58,9.19-1.58s6.61.53,9.19,1.58,4.73,2.49,6.44,4.33c1.72,1.83,2.98,3.96,3.79,6.4.81,2.43,1.22,5.03,1.22,7.8v4.14c0,2.71-.4,5.33-1.22,7.89-.81,2.55-2.06,4.81-3.74,6.76-1.68,1.95-3.83,3.52-6.44,4.69-2.61,1.17-5.69,1.76-9.24,1.76s-6.61-.59-9.19-1.76c-2.59-1.17-4.73-2.73-6.44-4.69-1.71-1.95-2.97-4.21-3.78-6.76-.81-2.55-1.22-5.18-1.22-7.89M1513.45,541.81c2.04,0,3.77-.34,5.18-1.04,1.41-.69,2.57-1.62,3.47-2.79.9-1.17,1.56-2.54,1.98-4.1.42-1.56.63-3.18.63-4.87v-3.88c0-1.68-.21-3.26-.63-4.73-.42-1.47-1.08-2.75-1.98-3.83-.9-1.08-2.06-1.94-3.47-2.57-1.41-.63-3.14-.94-5.18-.94s-3.77.31-5.18.94c-1.41.63-2.57,1.49-3.47,2.57-.9,1.08-1.55,2.36-1.94,3.83-.39,1.47-.59,3.05-.59,4.73v3.88c0,1.69.19,3.29.59,4.82.39,1.53,1.04,2.88,1.94,4.05.9,1.17,2.06,2.12,3.47,2.84,1.41.72,3.14,1.08,5.18,1.08"/>
    <path class="cls-5" d="M1546.08,549.2v-43.62h9.01v6.31c.96-1.32,2.04-2.43,3.25-3.33,1.2-.9,2.46-1.64,3.78-2.21,1.32-.57,2.66-.99,4.01-1.26,1.35-.28,2.6-.41,3.74-.41,3.36,0,6.2.53,8.52,1.58,2.31,1.05,4.19,2.49,5.63,4.32,1.44,1.83,2.48,3.95,3.11,6.36.63,2.4.94,4.95.94,7.66v24.6h-9.28v-24.06c0-3.6-.85-6.54-2.53-8.79-1.68-2.25-4.42-3.38-8.2-3.38-2.1,0-3.95.34-5.54,1.04-1.6.69-2.92,1.66-3.97,2.88s-1.85,2.67-2.39,4.32c-.54,1.66-.81,3.44-.81,5.36v22.62h-9.28Z"/>
    <path class="cls-5" d="M1599.52,519.19c0-4.32,1.62-7.8,4.87-10.45,3.24-2.64,7.99-3.97,14.23-3.97s11.15,1.4,14.33,4.19c3.18,2.79,4.78,6.71,4.78,11.76v28.48h-8.83l-.09-5.95c-1.08,2.1-2.99,3.77-5.72,5-2.74,1.23-5.73,1.88-8.97,1.94-1.93,0-3.8-.21-5.63-.63-1.83-.42-3.47-1.14-4.91-2.16-1.44-1.02-2.61-2.36-3.52-4.01-.9-1.65-1.41-3.68-1.53-6.08-.06-2.05.22-3.95.86-5.72.63-1.77,1.62-3.32,2.97-4.64,1.35-1.33,3.08-2.38,5.18-3.16,2.1-.78,4.54-1.17,7.3-1.17l13.97-.09v-1.62c.06-2.94-.86-5.08-2.75-6.4-1.89-1.32-4.43-1.98-7.61-1.98-3.55-.06-6.06.55-7.53,1.81-1.47,1.26-2.23,2.88-2.3,4.86h-9.1ZM1628.81,529.92h-13.16c-2.1,0-3.83.68-5.18,2.03-1.35,1.35-2,2.93-1.94,4.73.11,2.05.87,3.53,2.25,4.46,1.38.93,2.94,1.39,4.69,1.39s3.41-.25,5-.77c1.6-.51,3.01-1.24,4.24-2.21,1.22-.96,2.22-2.16,2.97-3.6.75-1.44,1.12-3.06,1.12-4.87v-1.17Z"/>
    <rect class="cls-5" x="1649.71" y="484.77" width="9.29" height="64.53"/>
  </g>
  <path class="cls-2" d="M225.23,324.82v243.28h-81.22c-73.63,0-133.9-60.27-133.9-133.9v-157.04h167.5c2.28,0,4.56.17,6.76.5,23.06,3.28,40.86,23.19,40.86,47.16"/>
  <path class="cls-4" d="M565.82,146.25v64.58h-250.17c-27.38,0-49.78-22.4-49.78-49.78V12.39h166.09c38.95,0,74.17,16.84,98.68,43.64,21.82,23.85,35.18,55.58,35.18,90.22"/>
  <path class="cls-3" d="M565.82,252.31v116.31h-120.46c-49.15,0-89.14,39.99-89.14,89.1v110.38h-89.51v-268.17c0-26.26,21.36-47.62,47.66-47.62h251.45Z"/>
  <path class="cls-1" d="M445.37,410.11h120.46v158h-168.12v-110.38c0-26.26,21.4-47.62,47.66-47.62"/>
  <path class="cls-6" d="M224.4,12.39v176.5c0,23.77-17.46,43.51-40.24,47.08-2.41.33-4.89.54-7.38.54H10.11V12.39h214.29Z"/>
  <g>
    <path class="cls-5" d="M636.23,132.03V24.89h46.52c5.48,0,10.83.56,16.04,1.68,5.21,1.12,9.82,3.02,13.85,5.71,4.03,2.69,7.28,6.21,9.74,10.58,2.46,4.37,3.69,9.8,3.69,16.29,0,6.16-1.29,11.39-3.86,15.7-2.58,4.31-5.94,7.84-10.08,10.58-4.14,2.75-8.79,4.76-13.94,6.05-5.15,1.29-10.3,1.93-15.45,1.93h-25.86v38.62h-20.65ZM656.89,76.28h25.36c2.91,0,5.76-.25,8.56-.76,2.8-.5,5.29-1.43,7.47-2.77,2.18-1.34,3.92-3.16,5.21-5.46,1.28-2.29,1.93-5.29,1.93-8.98s-.7-6.44-2.1-8.56c-1.4-2.12-3.22-3.75-5.46-4.87-2.24-1.12-4.73-1.87-7.47-2.27-2.74-.39-5.46-.59-8.14-.59h-25.36v34.26Z"/>
    <path class="cls-5" d="M768.39,132.2V10.29h20.15v121.91h-20.15Z"/>
    <path class="cls-5" d="M833.54,76.11c0-8.51,3.19-15.28,9.57-20.32,6.38-5.04,15.45-7.56,27.2-7.56s21.44,2.63,27.71,7.89c6.27,5.26,9.4,12.76,9.4,22.5v53.4h-18.97v-10.58c-2.24,3.58-5.91,6.52-11,8.82-5.1,2.29-10.66,3.5-16.71,3.61-3.36,0-6.69-.36-9.99-1.09-3.3-.73-6.33-2.02-9.07-3.86-2.75-1.85-5.01-4.28-6.8-7.3-1.79-3.02-2.86-6.72-3.19-11.08-.34-3.92.11-7.58,1.34-11,1.23-3.41,3.19-6.38,5.88-8.9,2.69-2.52,6.07-4.5,10.16-5.96,4.08-1.45,8.87-2.18,14.36-2.18h25.02v-3.53c0-5.15-1.65-8.81-4.95-11-3.3-2.18-7.75-3.33-13.35-3.44-6.16-.11-10.58.9-13.27,3.02-2.69,2.13-4.14,4.98-4.37,8.56h-18.98ZM888.46,96.94h-23.68c-4.26,0-7.45,1.2-9.57,3.61-2.13,2.41-3.08,5.07-2.86,7.98.34,3.58,1.82,6.1,4.45,7.56,2.63,1.46,5.46,2.13,8.48,2.02,3.02-.11,5.93-.62,8.73-1.51,2.8-.89,5.26-2.15,7.39-3.78,2.12-1.62,3.83-3.58,5.12-5.88,1.28-2.29,1.93-4.95,1.93-7.98v-2.01Z"/>
    <path class="cls-5" d="M958.99,50.08v-23h20.15v23h22.5v15.79h-22.5v43.66c0,2.24.67,3.81,2.02,4.7,1.34.9,3.19,1.34,5.54,1.34,1.68,0,3.58-.14,5.71-.42,2.13-.28,4.48-.7,7.05-1.26v16.62c-2.91.9-5.99,1.6-9.24,2.1-3.25.5-6.38.75-9.4.75-4.26,0-7.67-.5-10.24-1.51-3.58-.9-6.41-2.91-8.48-6.04-2.07-3.13-3.11-7.61-3.11-13.44v-46.52h-15.62v-15.79h15.62Z"/>
    <path class="cls-5" d="M1040.26,76.11c0-8.51,3.19-15.28,9.57-20.32,6.38-5.04,15.45-7.56,27.2-7.56s21.44,2.63,27.71,7.89c6.27,5.26,9.4,12.76,9.4,22.5v53.4h-18.97v-10.58c-2.24,3.58-5.91,6.52-11,8.82-5.1,2.29-10.66,3.5-16.71,3.61-3.36,0-6.69-.36-9.99-1.09-3.3-.73-6.33-2.02-9.07-3.86-2.75-1.85-5.01-4.28-6.8-7.3-1.79-3.02-2.86-6.72-3.19-11.08-.34-3.92.11-7.58,1.34-11,1.23-3.41,3.19-6.38,5.88-8.9,2.69-2.52,6.07-4.5,10.16-5.96,4.08-1.45,8.87-2.18,14.36-2.18h25.02v-3.53c0-5.15-1.65-8.81-4.95-11-3.3-2.18-7.75-3.33-13.35-3.44-6.16-.11-10.58.9-13.27,3.02-2.69,2.13-4.14,4.98-4.37,8.56h-18.98ZM1095.17,96.94h-23.68c-4.26,0-7.45,1.2-9.57,3.61-2.13,2.41-3.08,5.07-2.86,7.98.34,3.58,1.82,6.1,4.45,7.56,2.63,1.46,5.46,2.13,8.48,2.02,3.02-.11,5.93-.62,8.73-1.51,2.8-.89,5.26-2.15,7.39-3.78,2.12-1.62,3.83-3.58,5.12-5.88,1.28-2.29,1.93-4.95,1.93-7.98v-2.01Z"/>
    <path class="cls-5" d="M1163.85,65.87h-13.43v-15.79h13.43v-10.24c0-8.06,2.69-14.47,8.06-19.23,5.37-4.76,12.82-7.19,22.33-7.3,2.24,0,4.42.11,6.55.34,2.12.23,4.31.67,6.55,1.34v16.29c-2.24-.56-4.65-.84-7.22-.84-2.02,0-3.98.17-5.88.5-3.92.45-6.66,1.76-8.23,3.95-1.57,2.18-2.35,5.01-2.35,8.48v6.72h22v15.79h-21.66v66.16h-20.15v-66.16Z"/>
    <path class="cls-5" d="M1240.43,93.74v-7.56c0-5.04.76-9.82,2.27-14.36,1.51-4.53,3.89-8.56,7.14-12.09,3.25-3.53,7.36-6.32,12.34-8.4,4.98-2.07,11-3.11,18.05-3.11s13.1,1.04,18.14,3.11c5.04,2.07,9.18,4.87,12.43,8.4,3.25,3.53,5.63,7.56,7.14,12.09,1.51,4.53,2.27,9.32,2.27,14.36v7.56c0,4.93-.75,9.77-2.27,14.53-1.51,4.76-3.86,9.04-7.05,12.85-3.19,3.81-7.33,6.86-12.42,9.15-5.1,2.29-11.17,3.44-18.22,3.44s-13.1-1.15-18.14-3.44c-5.04-2.29-9.15-5.34-12.34-9.15-3.19-3.8-5.54-8.09-7.05-12.85-1.51-4.76-2.27-9.6-2.27-14.53ZM1280.39,116.41c3.47,0,6.44-.61,8.9-1.85,2.46-1.23,4.5-2.88,6.13-4.95,1.62-2.07,2.8-4.48,3.53-7.22.73-2.74,1.09-5.62,1.09-8.65v-7.05c0-6.04-1.51-11.08-4.53-15.11-3.02-4.03-8.06-6.05-15.11-6.05s-12.07,2.02-15.03,6.05c-2.97,4.03-4.45,9.07-4.45,15.11v7.05c0,2.91.34,5.74,1.01,8.48.67,2.75,1.79,5.15,3.36,7.22,1.57,2.07,3.58,3.75,6.05,5.04,2.46,1.29,5.48,1.93,9.07,1.93Z"/>
    <path class="cls-5" d="M1364.02,132.03V49.92h19.65v12.43c3.13-5.37,7.31-8.98,12.51-10.83,5.21-1.85,11.05-2.77,17.55-2.77v18.64c-1.12-.22-2.43-.39-3.95-.51-1.51-.11-3,0-4.45.34-7.39.56-12.76,3.22-16.12,7.98-3.36,4.76-5.04,10.72-5.04,17.88v38.96h-20.15Z"/>
    <path class="cls-5" d="M1453.36,132.03V49.92h19.48v11.25c3.02-4.37,6.89-7.61,11.59-9.74,4.7-2.13,9.46-3.19,14.27-3.19,5.93,0,11.31,1.06,16.12,3.19,4.81,2.13,8.84,5.77,12.09,10.91,3.58-5.04,7.95-8.65,13.1-10.83,5.15-2.18,10.47-3.27,15.95-3.27,11.19,0,19.7,3.3,25.52,9.91,5.82,6.61,8.73,15.51,8.73,26.7v47.19h-20.15v-44.84c0-2.91-.31-5.63-.92-8.14-.62-2.52-1.6-4.73-2.94-6.63-1.34-1.9-3.14-3.41-5.38-4.53-2.24-1.12-4.98-1.68-8.23-1.68-7.28,0-12.57,2.16-15.87,6.47-3.3,4.31-4.95,10.16-4.95,17.55v41.81h-20.15v-44.84c0-2.91-.34-5.65-1.01-8.23-.67-2.57-1.71-4.81-3.11-6.72-1.4-1.9-3.25-3.39-5.54-4.45-2.3-1.06-5.07-1.6-8.31-1.6-6.72,0-11.75,2.18-15.11,6.55-3.36,4.37-5.04,9.91-5.04,16.62v42.65h-20.15Z"/>
    <path class="cls-5" d="M1633.71,76.11c0-8.51,3.19-15.28,9.57-20.32,6.38-5.04,15.45-7.56,27.2-7.56s21.44,2.63,27.71,7.89c6.27,5.26,9.4,12.76,9.4,22.5v53.4h-18.97v-10.58c-2.24,3.58-5.91,6.52-11,8.82-5.1,2.29-10.66,3.5-16.71,3.61-3.36,0-6.69-.36-9.99-1.09-3.3-.73-6.33-2.02-9.07-3.86-2.75-1.85-5.01-4.28-6.8-7.3-1.79-3.02-2.86-6.72-3.19-11.08-.34-3.92.11-7.58,1.34-11,1.23-3.41,3.19-6.38,5.88-8.9,2.69-2.52,6.07-4.5,10.16-5.96,4.08-1.45,8.87-2.18,14.36-2.18h25.02v-3.53c0-5.15-1.65-8.81-4.95-11-3.3-2.18-7.75-3.33-13.35-3.44-6.16-.11-10.58.9-13.27,3.02-2.69,2.13-4.14,4.98-4.37,8.56h-18.98ZM1688.62,96.94h-23.68c-4.26,0-7.45,1.2-9.57,3.61-2.13,2.41-3.08,5.07-2.86,7.98.34,3.58,1.82,6.1,4.45,7.56,2.63,1.46,5.46,2.13,8.48,2.02,3.02-.11,5.93-.62,8.73-1.51,2.8-.89,5.26-2.15,7.39-3.78,2.12-1.62,3.83-3.58,5.12-5.88,1.28-2.29,1.93-4.95,1.93-7.98v-2.01Z"/>
  </g>
</svg>